<svg xmlns="http://www.w3.org/2000/svg" viewBox="0 0 200 200" width="200" height="200"><defs><radialGradient id="bgG" cx="50%" cy="34%" r="76%"><stop offset="0%" stop-color="#fffcf6"/><stop offset="100%" stop-color="#f7efe2"/></radialGradient><radialGradient id="floor" cx="50%" cy="50%" r="50%"><stop offset="0%" stop-color="#a8977c" stop-opacity="0.5"/><stop offset="70%" stop-color="#a8977c" stop-opacity="0.12"/><stop offset="100%" stop-color="#a8977c" stop-opacity="0"/></radialGradient><linearGradient id="gloss" x1="0" y1="0" x2="0" y2="1"><stop offset="0%" stop-color="#ffffff" stop-opacity="0.75"/><stop offset="55%" stop-color="#ffffff" stop-opacity="0.12"/><stop offset="100%" stop-color="#ffffff" stop-opacity="0"/></linearGradient><clipPath id="cardClip"><rect width="200" height="200" rx="26"/></clipPath><clipPath id="sceneClip"><rect width="320" height="180" rx="14"/></clipPath></defs><g clip-path="url(#cardClip)"><rect width="200" height="200" rx="26" fill="url(#bgG)"/><ellipse cx="100" cy="156" rx="42" ry="10" fill="url(#floor)"/><path d="M64 150 q5-40 36-40 q31 0 36 40z" fill="#e88fa0"/><path d="M64 150 q5-40 36-40 q10 0 17 5 q-30 6-40 35z" fill="url(#gloss)"/><path d="M63 94 q0-47 37-47 q37 0 37 47 q0 27-8 31 q-4-31-29-31 q-25 0-29 31 q-8-4-8-31z" fill="#5a3a24"/><defs><radialGradient id="o105" cx="34%" cy="28%" r="82%"><stop offset="0%" stop-color="#ffe4cb"/><stop offset="58%" stop-color="#d9a781"/><stop offset="100%" stop-color="#ab7c56"/></radialGradient><radialGradient id="r106" cx="70%" cy="78%" r="60%"><stop offset="60%" stop-color="#ffffff" stop-opacity="0"/><stop offset="100%" stop-color="#ffffff" stop-opacity="0.55"/></radialGradient></defs><circle cx="100" cy="82" r="30" fill="url(#o105)"/><circle cx="100" cy="82" r="30" fill="url(#r106)"/><ellipse cx="90.1" cy="69.4" rx="9.0" ry="6.0" fill="#fff" opacity="0.8" transform="rotate(-28 100 82)"/><ellipse cx="108.4" cy="97" rx="6.6" ry="3.3" fill="#fff" opacity="0.3"/><circle cx="89" cy="82" r="4.2" fill="#3a2b20"/><circle cx="111" cy="82" r="4.2" fill="#3a2b20"/><path d="M90 96 q10 9 20 0" stroke="#c47a68" stroke-width="3.5" fill="none" stroke-linecap="round"/></g></svg>