<svg xmlns="http://www.w3.org/2000/svg" viewBox="0 0 320 180" width="320" height="180"><defs><radialGradient id="bgG" cx="50%" cy="34%" r="76%"><stop offset="0%" stop-color="#fffcf6"/><stop offset="100%" stop-color="#f7efe2"/></radialGradient><radialGradient id="floor" cx="50%" cy="50%" r="50%"><stop offset="0%" stop-color="#a8977c" stop-opacity="0.5"/><stop offset="70%" stop-color="#a8977c" stop-opacity="0.12"/><stop offset="100%" stop-color="#a8977c" stop-opacity="0"/></radialGradient><linearGradient id="gloss" x1="0" y1="0" x2="0" y2="1"><stop offset="0%" stop-color="#ffffff" stop-opacity="0.75"/><stop offset="55%" stop-color="#ffffff" stop-opacity="0.12"/><stop offset="100%" stop-color="#ffffff" stop-opacity="0"/></linearGradient><clipPath id="cardClip"><rect width="200" height="200" rx="26"/></clipPath><clipPath id="sceneClip"><rect width="320" height="180" rx="14"/></clipPath></defs><g clip-path="url(#sceneClip)"><rect width="320" height="180" fill="url(#bgG)"/><rect x="24" y="20" width="152" height="142" rx="11" fill="#fffdf8" stroke="#e8e0d2" stroke-width="3"/><line x1="42" y1="44" x2="158" y2="44" stroke="#e6dfd0" stroke-width="5" stroke-linecap="round"/><line x1="42" y1="64" x2="138" y2="64" stroke="#e6dfd0" stroke-width="5" stroke-linecap="round"/><line x1="42" y1="84" x2="158" y2="84" stroke="#e6dfd0" stroke-width="5" stroke-linecap="round"/><line x1="42" y1="104" x2="138" y2="104" stroke="#e6dfd0" stroke-width="5" stroke-linecap="round"/><line x1="42" y1="124" x2="158" y2="124" stroke="#e6dfd0" stroke-width="5" stroke-linecap="round"/><defs><linearGradient id="sl188" x1="0.15" y1="0" x2="0.85" y2="1"><stop offset="0%" stop-color="#f6efe1"/><stop offset="100%" stop-color="#e2d8c4"/></linearGradient></defs><rect x="42" y="132" width="54" height="20" rx="6" fill="url(#sl188)"/><rect x="44" y="134" width="50" height="8.4" rx="4" fill="url(#gloss)"/><rect x="42" y="132" width="54" height="20" rx="6" fill="none" stroke="#fff" stroke-opacity="0.4" stroke-width="1.5"/><text x="56" y="147" font-family="Georgia,serif" font-size="15" fill="#8a847b">21</text><defs><radialGradient id="o189" cx="34%" cy="28%" r="82%"><stop offset="0%" stop-color="#ff9d8c"/><stop offset="58%" stop-color="#e0514a"/><stop offset="100%" stop-color="#a82a26"/></radialGradient><radialGradient id="r190" cx="70%" cy="78%" r="60%"><stop offset="60%" stop-color="#ffffff" stop-opacity="0"/><stop offset="100%" stop-color="#ffffff" stop-opacity="0.55"/></radialGradient></defs><circle cx="226" cy="60" r="23" fill="url(#o189)"/><circle cx="226" cy="60" r="23" fill="url(#r190)"/><ellipse cx="218.41" cy="50.34" rx="6.9" ry="4.6" fill="#fff" opacity="0.8" transform="rotate(-28 226 60)"/><ellipse cx="232.44" cy="71.5" rx="5.1" ry="2.5" fill="#fff" opacity="0.3"/><defs><radialGradient id="o191" cx="34%" cy="28%" r="82%"><stop offset="0%" stop-color="#ff9d8c"/><stop offset="58%" stop-color="#dc4b45"/><stop offset="100%" stop-color="#a82a26"/></radialGradient><radialGradient id="r192" cx="70%" cy="78%" r="60%"><stop offset="60%" stop-color="#ffffff" stop-opacity="0"/><stop offset="100%" stop-color="#ffffff" stop-opacity="0.55"/></radialGradient></defs><circle cx="270" cy="72" r="23" fill="url(#o191)"/><circle cx="270" cy="72" r="23" fill="url(#r192)"/><ellipse cx="262.41" cy="62.34" rx="6.9" ry="4.6" fill="#fff" opacity="0.8" transform="rotate(-28 270 72)"/><ellipse cx="276.44" cy="83.5" rx="5.1" ry="2.5" fill="#fff" opacity="0.3"/><defs><radialGradient id="o193" cx="34%" cy="28%" r="82%"><stop offset="0%" stop-color="#ffb0a0"/><stop offset="58%" stop-color="#e2554c"/><stop offset="100%" stop-color="#ab2c27"/></radialGradient><radialGradient id="r194" cx="70%" cy="78%" r="60%"><stop offset="60%" stop-color="#ffffff" stop-opacity="0"/><stop offset="100%" stop-color="#ffffff" stop-opacity="0.55"/></radialGradient></defs><circle cx="247" cy="40" r="25" fill="url(#o193)"/><circle cx="247" cy="40" r="25" fill="url(#r194)"/><ellipse cx="238.75" cy="29.5" rx="7.5" ry="5.0" fill="#fff" opacity="0.8" transform="rotate(-28 247 40)"/><ellipse cx="254" cy="52.5" rx="5.5" ry="2.8" fill="#fff" opacity="0.3"/><ellipse cx="248" cy="112" rx="56" ry="9" fill="url(#floor)"/><defs><linearGradient id="st195" x1="0" y1="0" x2="0.4" y2="1"><stop offset="0%" stop-color="#ffe9a8"/><stop offset="55%" stop-color="#f2b736"/><stop offset="100%" stop-color="#c98f14"/></linearGradient></defs><polygon points="226.0,113.0 229.4,121.3 238.4,122.0 231.6,127.8 233.6,136.5 226.0,131.8 218.4,136.5 220.4,127.8 213.6,122.0 222.6,121.3" fill="url(#st195)"/><polygon points="226.0,113.0 229.4,121.3 238.4,122.0 231.6,127.8 233.6,136.5 226.0,131.8 218.4,136.5 220.4,127.8 213.6,122.0 222.6,121.3" fill="none" stroke="#fff" stroke-opacity="0.45" stroke-width="1.5"/><defs><linearGradient id="st196" x1="0" y1="0" x2="0.4" y2="1"><stop offset="0%" stop-color="#ffe9a8"/><stop offset="55%" stop-color="#e8a92c"/><stop offset="100%" stop-color="#c98f14"/></linearGradient></defs><polygon points="260.0,119.0 262.9,126.0 270.5,126.6 264.7,131.5 266.5,138.9 260.0,134.9 253.5,138.9 255.3,131.5 249.5,126.6 257.1,126.0" fill="url(#st196)"/><polygon points="260.0,119.0 262.9,126.0 270.5,126.6 264.7,131.5 266.5,138.9 260.0,134.9 253.5,138.9 255.3,131.5 249.5,126.6 257.1,126.0" fill="none" stroke="#fff" stroke-opacity="0.45" stroke-width="1.5"/><text x="198" y="162" font-family="Georgia,serif" font-size="19" fill="#b55e48">24 - 8 + 5</text></g></svg>