<svg xmlns="http://www.w3.org/2000/svg" viewBox="0 0 400 250" width="400" height="250" role="img">
<defs>
<linearGradient id="bg" x1="0" y1="0" x2="0.4" y2="1">
  <stop offset="0%" stop-color="#14532d"/><stop offset="100%" stop-color="#0e7490"/></linearGradient>
<linearGradient id="sheen" x1="0" y1="0" x2="0" y2="1">
  <stop offset="0%" stop-color="#ffffff" stop-opacity="0.30"/>
  <stop offset="45%" stop-color="#ffffff" stop-opacity="0.05"/>
  <stop offset="100%" stop-color="#ffffff" stop-opacity="0"/></linearGradient>
<radialGradient id="vig" cx="50%" cy="46%" r="72%">
  <stop offset="60%" stop-color="#000000" stop-opacity="0"/>
  <stop offset="100%" stop-color="#000000" stop-opacity="0.30"/></radialGradient>
<clipPath id="card"><rect width="400" height="250" rx="26"/></clipPath>
<radialGradient id="bloom" cx="50%" cy="50%" r="50%"><stop offset="0%" stop-color="#a3e635" stop-opacity="0.85"/><stop offset="60%" stop-color="#a3e635" stop-opacity="0.22"/><stop offset="100%" stop-color="#a3e635" stop-opacity="0"/></radialGradient><radialGradient id="gShirt" cx="34%" cy="26%" r="82%"><stop offset="0%" stop-color="#fcdb86"/><stop offset="55%" stop-color="#fbbf24"/><stop offset="100%" stop-color="#b45309"/></radialGradient><radialGradient id="gSkin" cx="34%" cy="26%" r="82%"><stop offset="0%" stop-color="#f6cfb4"/><stop offset="55%" stop-color="#f0a878"/><stop offset="100%" stop-color="#b4713f"/></radialGradient><radialGradient id="gWhistle" cx="34%" cy="26%" r="82%"><stop offset="0%" stop-color="#c4ccd7"/><stop offset="55%" stop-color="#94a3b8"/><stop offset="100%" stop-color="#334155"/></radialGradient>
</defs>
<g clip-path="url(#card)"><rect width="400" height="250" fill="url(#bg)"/><circle cx="200" cy="140" r="122" fill="url(#bloom)"/><path d="M0 196 Q 200 180 400 196 L400 250 L0 250 Z" fill="#166534"/><path d="M0 196 Q 200 180 400 196" fill="none" stroke="#a3e635" stroke-width="3" stroke-linecap="round" opacity="0.5"/><path d="M0 178 L400 178" stroke="#ffffff" stroke-width="9"/><ellipse cx="150" cy="200" rx="40" ry="9" fill="#000000" opacity="0.28"/><ellipse cx="248" cy="200" rx="36" ry="8" fill="#000000" opacity="0.28"/><rect x="130" y="118" width="42" height="62" rx="19" fill="url(#gShirt)"/><circle cx="151" cy="100" r="23" fill="url(#gSkin)"/><path d="M128 94 a 23 23 0 0 1 46 0 q -23 -13 -46 0 Z" fill="#241a3d"/><ellipse cx="143" cy="102" rx="5.4" ry="6.2" fill="#ffffff"/><circle cx="143" cy="102.6" r="3.3" fill="#1e1b4b"/><circle cx="141.7" cy="100.5" r="1.4" fill="#ffffff"/><circle cx="144.4" cy="103.8" r="0.7" fill="#ffffff" opacity="0.85"/><ellipse cx="159" cy="102" rx="5.4" ry="6.2" fill="#ffffff"/><circle cx="159" cy="102.6" r="3.3" fill="#1e1b4b"/><circle cx="157.7" cy="100.5" r="1.4" fill="#ffffff"/><circle cx="160.4" cy="103.8" r="0.7" fill="#ffffff" opacity="0.85"/><path d="M137 113 q 7 5 14 0" stroke="#7c2d12" stroke-width="2.6" fill="none" stroke-linecap="round"/><path d="M138 178 l-4 22" stroke="url(#gSkin)" stroke-width="10" stroke-linecap="round"/><path d="M164 178 l4 22" stroke="url(#gSkin)" stroke-width="10" stroke-linecap="round"/><rect x="230" y="126" width="38" height="56" rx="17" fill="#22d3ee"/><circle cx="249" cy="110" r="20" fill="#b4713f"/><path d="M229 105 a 20 20 0 0 1 40 0 q -20 -12 -40 0 Z" fill="#241a3d"/><ellipse cx="242" cy="111" rx="4.6" ry="5.3" fill="#ffffff"/><circle cx="242" cy="111.6" r="2.9" fill="#1e1b4b"/><circle cx="240.9" cy="109.7" r="1.2" fill="#ffffff"/><circle cx="243.2" cy="112.6" r="0.6" fill="#ffffff" opacity="0.85"/><ellipse cx="256" cy="111" rx="4.6" ry="5.3" fill="#ffffff"/><circle cx="256" cy="111.6" r="2.9" fill="#1e1b4b"/><circle cx="254.9" cy="109.7" r="1.2" fill="#ffffff"/><circle cx="257.2" cy="112.6" r="0.6" fill="#ffffff" opacity="0.85"/><g transform="rotate(-16 322 96)"><rect x="300" y="84" width="44" height="24" rx="12" fill="url(#gWhistle)"/><circle cx="344" cy="96" r="9" fill="#334155"/><rect x="292" y="90" width="12" height="12" rx="4" fill="#ff4d9d"/></g><path d="M352 74 a 22 22 0 0 1 0 24" fill="none" stroke="#fbbf24" stroke-width="3.4" stroke-linecap="round" opacity="0.70"/><path d="M352 74 a 34 34 0 0 1 0 37" fill="none" stroke="#fbbf24" stroke-width="3.4" stroke-linecap="round" opacity="0.52"/><path d="M352 74 a 46 46 0 0 1 0 51" fill="none" stroke="#fbbf24" stroke-width="3.4" stroke-linecap="round" opacity="0.34"/><path d="M64 55 Q 65.5 60.5 71 62 Q 65.5 63.5 64 69 Q 62.5 63.5 57 62 Q 62.5 60.5 64 55 Z" fill="#22d3ee" opacity="0.92"/><path d="M330 175 Q 331.1 178.9 335 180 Q 331.1 181.1 330 185 Q 328.9 181.1 325 180 Q 328.9 178.9 330 175 Z" fill="#22d3ee" opacity="0.92"/><rect width="400" height="250" fill="url(#vig)"/><rect width="400" height="250" fill="url(#sheen)"/></g></svg>
