<svg xmlns="http://www.w3.org/2000/svg" viewBox="0 0 200 200" width="200" height="200"><defs><radialGradient id="bgG" cx="50%" cy="34%" r="76%"><stop offset="0%" stop-color="#fffcf6"/><stop offset="100%" stop-color="#f7efe2"/></radialGradient><radialGradient id="floor" cx="50%" cy="50%" r="50%"><stop offset="0%" stop-color="#a8977c" stop-opacity="0.5"/><stop offset="70%" stop-color="#a8977c" stop-opacity="0.12"/><stop offset="100%" stop-color="#a8977c" stop-opacity="0"/></radialGradient><linearGradient id="gloss" x1="0" y1="0" x2="0" y2="1"><stop offset="0%" stop-color="#ffffff" stop-opacity="0.75"/><stop offset="55%" stop-color="#ffffff" stop-opacity="0.12"/><stop offset="100%" stop-color="#ffffff" stop-opacity="0"/></linearGradient><clipPath id="cardClip"><rect width="200" height="200" rx="26"/></clipPath><clipPath id="sceneClip"><rect width="320" height="180" rx="14"/></clipPath></defs><g clip-path="url(#cardClip)"><rect width="200" height="200" rx="26" fill="url(#bgG)"/><defs><linearGradient id="st56" x1="0" y1="0" x2="0.4" y2="1"><stop offset="0%" stop-color="#ffe9a8"/><stop offset="55%" stop-color="#f6c445"/><stop offset="100%" stop-color="#c98f14"/></linearGradient></defs><polygon points="44.0,33.0 46.9,40.0 54.5,40.6 48.7,45.5 50.5,52.9 44.0,49.0 37.5,52.9 39.3,45.5 33.5,40.6 41.1,40.0" fill="url(#st56)"/><polygon points="44.0,33.0 46.9,40.0 54.5,40.6 48.7,45.5 50.5,52.9 44.0,49.0 37.5,52.9 39.3,45.5 33.5,40.6 41.1,40.0" fill="none" stroke="#fff" stroke-opacity="0.45" stroke-width="1.5"/><defs><linearGradient id="st57" x1="0" y1="0" x2="0.4" y2="1"><stop offset="0%" stop-color="#ffe9a8"/><stop offset="55%" stop-color="#f6c445"/><stop offset="100%" stop-color="#c98f14"/></linearGradient></defs><polygon points="162.0,49.0 164.4,54.7 170.6,55.2 165.9,59.3 167.3,65.3 162.0,62.0 156.7,65.3 158.1,59.3 153.4,55.2 159.6,54.7" fill="url(#st57)"/><polygon points="162.0,49.0 164.4,54.7 170.6,55.2 165.9,59.3 167.3,65.3 162.0,62.0 156.7,65.3 158.1,59.3 153.4,55.2 159.6,54.7" fill="none" stroke="#fff" stroke-opacity="0.45" stroke-width="1.5"/><defs><linearGradient id="st58" x1="0" y1="0" x2="0.4" y2="1"><stop offset="0%" stop-color="#ffe9a8"/><stop offset="55%" stop-color="#e8a92c"/><stop offset="100%" stop-color="#c98f14"/></linearGradient></defs><polygon points="50.0,143.0 51.9,147.5 56.7,147.8 53.0,151.0 54.1,155.7 50.0,153.2 45.9,155.7 47.0,151.0 43.3,147.8 48.1,147.5" fill="url(#st58)"/><polygon points="50.0,143.0 51.9,147.5 56.7,147.8 53.0,151.0 54.1,155.7 50.0,153.2 45.9,155.7 47.0,151.0 43.3,147.8 48.1,147.5" fill="none" stroke="#fff" stroke-opacity="0.45" stroke-width="1.5"/><defs><radialGradient id="o59" cx="34%" cy="28%" r="82%"><stop offset="0%" stop-color="#bcd0f5"/><stop offset="58%" stop-color="#5169a8"/><stop offset="100%" stop-color="#2f4272"/></radialGradient><radialGradient id="r60" cx="70%" cy="78%" r="60%"><stop offset="60%" stop-color="#ffffff" stop-opacity="0"/><stop offset="100%" stop-color="#ffffff" stop-opacity="0.55"/></radialGradient></defs><circle cx="140" cy="130" r="29" fill="url(#o59)"/><circle cx="140" cy="130" r="29" fill="url(#r60)"/><ellipse cx="130.43" cy="117.82" rx="8.7" ry="5.8" fill="#fff" opacity="0.8" transform="rotate(-28 140 130)"/><ellipse cx="148.12" cy="144.5" rx="6.4" ry="3.2" fill="#fff" opacity="0.3"/><ellipse cx="140" cy="130" rx="44" ry="11" fill="none" stroke="#e0c07e" stroke-width="5" transform="rotate(-18 140 130)"/><path d="M86 36 q27 23 27 58 q0 21-27 35 q-27-14-27-35 q0-35 27-58z" fill="#f6f3ec"/><path d="M86 36 q27 23 27 58 q0 21-27 35 q-8-16-8-42 q0-30 8-51z" fill="url(#gloss)"/><defs><radialGradient id="o61" cx="34%" cy="28%" r="82%"><stop offset="0%" stop-color="#bff0ff"/><stop offset="58%" stop-color="#3f92a8"/><stop offset="100%" stop-color="#22687c"/></radialGradient><radialGradient id="r62" cx="70%" cy="78%" r="60%"><stop offset="60%" stop-color="#ffffff" stop-opacity="0"/><stop offset="100%" stop-color="#ffffff" stop-opacity="0.55"/></radialGradient></defs><circle cx="86" cy="86" r="13" fill="url(#o61)"/><circle cx="86" cy="86" r="13" fill="url(#r62)"/><ellipse cx="81.71" cy="80.54" rx="3.9" ry="2.6" fill="#fff" opacity="0.8" transform="rotate(-28 86 86)"/><ellipse cx="89.64" cy="92.5" rx="2.9" ry="1.4" fill="#fff" opacity="0.3"/><path d="M59 110 l-15 23 l25-9z M113 110 l15 23 l-25-9z" fill="#e05b4c"/><path d="M74 132 q12 26 24 0 q-12 11-24 0z" fill="#f7b93b"/></g></svg>