<svg xmlns="http://www.w3.org/2000/svg" viewBox="0 0 400 250" width="400" height="250" role="img"><title>The Tortoise and the Hare</title><defs><linearGradient id="a118_bg" x1="0" y1="0" x2="0.4" y2="1"><stop offset="0%" stop-color="#052e16"/><stop offset="100%" stop-color="#15803d"/></linearGradient><linearGradient id="a118_sheen" x1="0" y1="0" x2="0" y2="1"><stop offset="0%" stop-color="#ffffff" stop-opacity="0.30"/><stop offset="45%" stop-color="#ffffff" stop-opacity="0.05"/><stop offset="100%" stop-color="#ffffff" stop-opacity="0"/></linearGradient><radialGradient id="a118_vig" cx="50%" cy="46%" r="72%"><stop offset="60%" stop-color="#000000" stop-opacity="0"/><stop offset="100%" stop-color="#000000" stop-opacity="0.32"/></radialGradient><clipPath id="a118_card"><rect width="400" height="250" rx="26"/></clipPath><radialGradient id="a118_bl1" cx="50%" cy="50%" r="50%"><stop offset="0%" stop-color="#a3e635" stop-opacity="0.75"/><stop offset="60%" stop-color="#a3e635" stop-opacity="0.20"/><stop offset="100%" stop-color="#a3e635" stop-opacity="0"/></radialGradient><radialGradient id="a118_g2" cx="34%" cy="26%" r="82%"><stop offset="0%" stop-color="#fcb0bb"/><stop offset="55%" stop-color="#fb7185"/><stop offset="100%" stop-color="#823a45"/></radialGradient><radialGradient id="a118_g3" cx="34%" cy="26%" r="82%"><stop offset="0%" stop-color="#fcb0bb"/><stop offset="55%" stop-color="#fb7185"/><stop offset="100%" stop-color="#823a45"/></radialGradient><radialGradient id="a118_g4" cx="34%" cy="26%" r="82%"><stop offset="0%" stop-color="#ccf18f"/><stop offset="55%" stop-color="#a3e635"/><stop offset="100%" stop-color="#54771b"/></radialGradient><radialGradient id="a118_g5" cx="34%" cy="26%" r="82%"><stop offset="0%" stop-color="#8fe6c6"/><stop offset="55%" stop-color="#34d399"/><stop offset="100%" stop-color="#1b6d4f"/></radialGradient></defs><g clip-path="url(#a118_card)"><rect width="400" height="250" fill="url(#a118_bg)"/><circle cx="200" cy="130" r="150" fill="url(#a118_bl1)"/><ellipse cx="300" cy="96" rx="40" ry="30" fill="url(#a118_g2)"/><ellipse cx="288" cy="84" rx="12.8" ry="6" fill="#ffffff" opacity="0.55" transform="rotate(-22 288 84)"/><circle cx="268" cy="74" r="20" fill="url(#a118_g3)"/><ellipse cx="261.6" cy="66.4" rx="6.8" ry="3.8" fill="#ffffff" opacity="0.55" transform="rotate(-24 261.6 66.4)"/><ellipse cx="254" cy="70" rx="6" ry="6.72" fill="#ffffff"/><circle cx="254" cy="70.6" r="3.36" fill="#1e1b4b"/><circle cx="252.68" cy="68.56" r="1.44" fill="#ffffff"/><circle cx="255.44" cy="71.8" r="0.72" fill="#ffffff" opacity="0.85"/><ellipse cx="270" cy="70" rx="6" ry="6.72" fill="#ffffff"/><circle cx="270" cy="70.6" r="3.36" fill="#1e1b4b"/><circle cx="268.68" cy="68.56" r="1.44" fill="#ffffff"/><circle cx="271.44" cy="71.8" r="0.72" fill="#ffffff" opacity="0.85"/><path d="M262 52 Q256 32 268 30" fill="none" stroke="#fb7185" stroke-width="7" stroke-linecap="round" stroke-linejoin="round" opacity="1.00"/><path d="M268 30 Q282 28 278 48" fill="none" stroke="#fb7185" stroke-width="7" stroke-linecap="round" stroke-linejoin="round" opacity="1.00"/><ellipse cx="120" cy="168" rx="54" ry="36" fill="url(#a118_g4)"/><ellipse cx="103.8" cy="153.6" rx="17.28" ry="7.2" fill="#ffffff" opacity="0.55" transform="rotate(-22 103.8 153.6)"/><circle cx="74" cy="156" r="21" fill="url(#a118_g5)"/><ellipse cx="67.28" cy="148.02" rx="7.14" ry="3.99" fill="#ffffff" opacity="0.55" transform="rotate(-24 67.28 148.02)"/><ellipse cx="62" cy="152" rx="6" ry="6.72" fill="#ffffff"/><circle cx="62" cy="152.6" r="3.36" fill="#1e1b4b"/><circle cx="60.68" cy="150.56" r="1.44" fill="#ffffff"/><circle cx="63.44" cy="153.8" r="0.72" fill="#ffffff" opacity="0.85"/><ellipse cx="78" cy="152" rx="6" ry="6.72" fill="#ffffff"/><circle cx="78" cy="152.6" r="3.36" fill="#1e1b4b"/><circle cx="76.68" cy="150.56" r="1.44" fill="#ffffff"/><circle cx="79.44" cy="153.8" r="0.72" fill="#ffffff" opacity="0.85"/><path d="M61 164 Q70 171.65 79 164" fill="none" stroke="#1e1b4b" stroke-width="4" stroke-linecap="round" stroke-linejoin="round" opacity="0.90"/><path d="M96 150 Q120 132 148 150" fill="none" stroke="#065f46" stroke-width="5" stroke-linecap="round" stroke-linejoin="round" opacity="0.55"/><path d="M20 214 L380 214" fill="none" stroke="#f59e0b" stroke-width="12" stroke-linecap="round" stroke-linejoin="round" opacity="0.90"/><path d="M52 45 L54.7 51.3 L61 54 L54.7 56.7 Z M52 63 L49.3 56.7 L43 54 L49.3 51.3 Z" fill="#ffffff" opacity="0.90"/><path d="M352 170 L354.4 175.6 L360 178 L354.4 180.4 Z M352 186 L349.6 180.4 L344 178 L349.6 175.6 Z" fill="#ffffff" opacity="0.90"/><path d="M196 37 L198.1 41.9 L203 44 L198.1 46.1 Z M196 51 L193.9 46.1 L189 44 L193.9 41.9 Z" fill="#ffffff" opacity="0.90"/><rect width="400" height="125" fill="url(#a118_sheen)" opacity="0.55"/><rect width="400" height="250" fill="url(#a118_vig)"/></g></svg>