<svg xmlns="http://www.w3.org/2000/svg" viewBox="0 0 400 250" width="400" height="250" role="img">
<defs>
<linearGradient id="bg" x1="0" y1="0" x2="0.4" y2="1">
  <stop offset="0%" stop-color="#7c2d12"/><stop offset="100%" stop-color="#c2410c"/></linearGradient>
<linearGradient id="sheen" x1="0" y1="0" x2="0" y2="1">
  <stop offset="0%" stop-color="#ffffff" stop-opacity="0.30"/>
  <stop offset="45%" stop-color="#ffffff" stop-opacity="0.05"/>
  <stop offset="100%" stop-color="#ffffff" stop-opacity="0"/></linearGradient>
<radialGradient id="vig" cx="50%" cy="46%" r="72%">
  <stop offset="60%" stop-color="#000000" stop-opacity="0"/>
  <stop offset="100%" stop-color="#000000" stop-opacity="0.30"/></radialGradient>
<clipPath id="card"><rect width="400" height="250" rx="26"/></clipPath>
<radialGradient id="bloom" cx="50%" cy="50%" r="50%"><stop offset="0%" stop-color="#fbbf24" stop-opacity="0.85"/><stop offset="60%" stop-color="#fbbf24" stop-opacity="0.22"/><stop offset="100%" stop-color="#fbbf24" stop-opacity="0"/></radialGradient><radialGradient id="gSun" cx="34%" cy="26%" r="82%"><stop offset="0%" stop-color="#fcdb86"/><stop offset="55%" stop-color="#fbbf24"/><stop offset="100%" stop-color="#b45309"/></radialGradient><radialGradient id="gShirt" cx="34%" cy="26%" r="82%"><stop offset="0%" stop-color="#fcb0bb"/><stop offset="55%" stop-color="#fb7185"/><stop offset="100%" stop-color="#be123c"/></radialGradient><radialGradient id="gSkin" cx="34%" cy="26%" r="82%"><stop offset="0%" stop-color="#f6cfb4"/><stop offset="55%" stop-color="#f0a878"/><stop offset="100%" stop-color="#b4713f"/></radialGradient>
</defs>
<g clip-path="url(#card)"><rect width="400" height="250" fill="url(#bg)"/><circle cx="66" cy="56" r="92" fill="url(#bloom)"/><circle cx="66" cy="56" r="28" fill="url(#gSun)"/><ellipse cx="57" cy="46" rx="9" ry="5" fill="#ffffff" opacity="0.5" transform="rotate(-24 57 46)"/><line x1="102" y1="56" x2="114" y2="56" stroke="#fbbf24" stroke-width="5" stroke-linecap="round" opacity="0.9"/><line x1="95" y1="77" x2="105" y2="84" stroke="#fbbf24" stroke-width="5" stroke-linecap="round" opacity="0.9"/><line x1="77" y1="90" x2="81" y2="102" stroke="#fbbf24" stroke-width="5" stroke-linecap="round" opacity="0.9"/><line x1="55" y1="90" x2="51" y2="102" stroke="#fbbf24" stroke-width="5" stroke-linecap="round" opacity="0.9"/><line x1="37" y1="77" x2="27" y2="84" stroke="#fbbf24" stroke-width="5" stroke-linecap="round" opacity="0.9"/><line x1="30" y1="56" x2="18" y2="56" stroke="#fbbf24" stroke-width="5" stroke-linecap="round" opacity="0.9"/><line x1="37" y1="35" x2="27" y2="28" stroke="#fbbf24" stroke-width="5" stroke-linecap="round" opacity="0.9"/><line x1="55" y1="22" x2="51" y2="10" stroke="#fbbf24" stroke-width="5" stroke-linecap="round" opacity="0.9"/><line x1="77" y1="22" x2="81" y2="10" stroke="#fbbf24" stroke-width="5" stroke-linecap="round" opacity="0.9"/><line x1="95" y1="35" x2="105" y2="28" stroke="#fbbf24" stroke-width="5" stroke-linecap="round" opacity="0.9"/><path d="M0 198 Q 200 182 400 198 L400 250 L0 250 Z" fill="#4d7c0f"/><path d="M0 198 Q 200 182 400 198" fill="none" stroke="#a3e635" stroke-width="3" stroke-linecap="round" opacity="0.5"/><path d="M238 214 L362 238 L374 214 L252 194 Z" fill="#5b21b6" opacity="0.62"/><ellipse cx="232" cy="212" rx="40" ry="9" fill="#000000" opacity="0.28"/><rect x="210" y="138" width="46" height="68" rx="21" fill="url(#gShirt)"/><circle cx="233" cy="118" r="27" fill="url(#gSkin)"/><path d="M208 110 a 25 25 0 0 1 50 0 q -25 -14 -50 0 Z" fill="#241a3d"/><ellipse cx="224" cy="120" rx="6" ry="6.9" fill="#ffffff"/><circle cx="224" cy="120.7" r="3.7" fill="#1e1b4b"/><circle cx="222.6" cy="118.3" r="1.6" fill="#ffffff"/><circle cx="225.6" cy="122.0" r="0.8" fill="#ffffff" opacity="0.85"/><ellipse cx="242" cy="120" rx="6" ry="6.9" fill="#ffffff"/><circle cx="242" cy="120.7" r="3.7" fill="#1e1b4b"/><circle cx="240.6" cy="118.3" r="1.6" fill="#ffffff"/><circle cx="243.6" cy="122.0" r="0.8" fill="#ffffff" opacity="0.85"/><path d="M219 132 q 7 5 14 0" stroke="#7c2d12" stroke-width="2.6" fill="none" stroke-linecap="round"/><path d="M254 158 L292 178" stroke="url(#gSkin)" stroke-width="12" stroke-linecap="round"/><path d="M140 53 Q 141.5 58.5 147 60 Q 141.5 61.5 140 67 Q 138.5 61.5 133 60 Q 138.5 58.5 140 53 Z" fill="#22d3ee" opacity="0.92"/><path d="M330 68 Q 331.3 72.7 336 74 Q 331.3 75.3 330 80 Q 328.7 75.3 324 74 Q 328.7 72.7 330 68 Z" fill="#22d3ee" opacity="0.92"/><path d="M108 123 Q 109.1 126.9 113 128 Q 109.1 129.1 108 133 Q 106.9 129.1 103 128 Q 106.9 126.9 108 123 Z" fill="#22d3ee" opacity="0.92"/><rect width="400" height="250" fill="url(#vig)"/><rect width="400" height="250" fill="url(#sheen)"/></g></svg>
