<svg xmlns="http://www.w3.org/2000/svg" viewBox="0 0 200 200" width="200" height="200"><defs><radialGradient id="bgG" cx="50%" cy="34%" r="76%"><stop offset="0%" stop-color="#fffcf6"/><stop offset="100%" stop-color="#f7efe2"/></radialGradient><radialGradient id="floor" cx="50%" cy="50%" r="50%"><stop offset="0%" stop-color="#a8977c" stop-opacity="0.5"/><stop offset="70%" stop-color="#a8977c" stop-opacity="0.12"/><stop offset="100%" stop-color="#a8977c" stop-opacity="0"/></radialGradient><linearGradient id="gloss" x1="0" y1="0" x2="0" y2="1"><stop offset="0%" stop-color="#ffffff" stop-opacity="0.75"/><stop offset="55%" stop-color="#ffffff" stop-opacity="0.12"/><stop offset="100%" stop-color="#ffffff" stop-opacity="0"/></linearGradient><clipPath id="cardClip"><rect width="200" height="200" rx="26"/></clipPath><clipPath id="sceneClip"><rect width="320" height="180" rx="14"/></clipPath></defs><g clip-path="url(#cardClip)"><rect width="200" height="200" rx="26" fill="url(#bgG)"/><ellipse cx="100" cy="154" rx="54" ry="11" fill="url(#floor)"/><defs><linearGradient id="sl121" x1="0.15" y1="0" x2="0.85" y2="1"><stop offset="0%" stop-color="#f0e6d4"/><stop offset="100%" stop-color="#bda88a"/></linearGradient></defs><rect x="44" y="54" width="112" height="92" rx="12" fill="url(#sl121)"/><rect x="46" y="56" width="108" height="38.6" rx="10" fill="url(#gloss)"/><rect x="44" y="54" width="112" height="92" rx="12" fill="none" stroke="#fff" stroke-opacity="0.4" stroke-width="1.5"/><rect x="56" y="66" width="88" height="68" rx="6" fill="#fffaf0"/><line x1="56" y1="82" x2="144" y2="82" stroke="#d8cdb8" stroke-width="3"/><defs><radialGradient id="o122" cx="34%" cy="28%" r="82%"><stop offset="0%" stop-color="#ff9d8c"/><stop offset="58%" stop-color="#c33f36"/><stop offset="100%" stop-color="#c33f36"/></radialGradient><radialGradient id="r123" cx="70%" cy="78%" r="60%"><stop offset="60%" stop-color="#ffffff" stop-opacity="0"/><stop offset="100%" stop-color="#ffffff" stop-opacity="0.55"/></radialGradient></defs><circle cx="70" cy="82" r="8" fill="url(#o122)"/><circle cx="70" cy="82" r="8" fill="url(#r123)"/><ellipse cx="67.36" cy="78.64" rx="2.4" ry="1.6" fill="#fff" opacity="0.8" transform="rotate(-28 70 82)"/><ellipse cx="72.24" cy="86" rx="1.8" ry="0.9" fill="#fff" opacity="0.3"/><defs><radialGradient id="o124" cx="34%" cy="28%" r="82%"><stop offset="0%" stop-color="#ff9d8c"/><stop offset="58%" stop-color="#c33f36"/><stop offset="100%" stop-color="#c33f36"/></radialGradient><radialGradient id="r125" cx="70%" cy="78%" r="60%"><stop offset="60%" stop-color="#ffffff" stop-opacity="0"/><stop offset="100%" stop-color="#ffffff" stop-opacity="0.55"/></radialGradient></defs><circle cx="90" cy="82" r="8" fill="url(#o124)"/><circle cx="90" cy="82" r="8" fill="url(#r125)"/><ellipse cx="87.36" cy="78.64" rx="2.4" ry="1.6" fill="#fff" opacity="0.8" transform="rotate(-28 90 82)"/><ellipse cx="92.24" cy="86" rx="1.8" ry="0.9" fill="#fff" opacity="0.3"/><defs><radialGradient id="o126" cx="34%" cy="28%" r="82%"><stop offset="0%" stop-color="#ff9d8c"/><stop offset="58%" stop-color="#c33f36"/><stop offset="100%" stop-color="#c33f36"/></radialGradient><radialGradient id="r127" cx="70%" cy="78%" r="60%"><stop offset="60%" stop-color="#ffffff" stop-opacity="0"/><stop offset="100%" stop-color="#ffffff" stop-opacity="0.55"/></radialGradient></defs><circle cx="110" cy="82" r="8" fill="url(#o126)"/><circle cx="110" cy="82" r="8" fill="url(#r127)"/><ellipse cx="107.36" cy="78.64" rx="2.4" ry="1.6" fill="#fff" opacity="0.8" transform="rotate(-28 110 82)"/><ellipse cx="112.24" cy="86" rx="1.8" ry="0.9" fill="#fff" opacity="0.3"/><defs><radialGradient id="o128" cx="34%" cy="28%" r="82%"><stop offset="0%" stop-color="#ff9d8c"/><stop offset="58%" stop-color="#c33f36"/><stop offset="100%" stop-color="#c33f36"/></radialGradient><radialGradient id="r129" cx="70%" cy="78%" r="60%"><stop offset="60%" stop-color="#ffffff" stop-opacity="0"/><stop offset="100%" stop-color="#ffffff" stop-opacity="0.55"/></radialGradient></defs><circle cx="130" cy="82" r="8" fill="url(#o128)"/><circle cx="130" cy="82" r="8" fill="url(#r129)"/><ellipse cx="127.36" cy="78.64" rx="2.4" ry="1.6" fill="#fff" opacity="0.8" transform="rotate(-28 130 82)"/><ellipse cx="132.24" cy="86" rx="1.8" ry="0.9" fill="#fff" opacity="0.3"/><line x1="56" y1="102" x2="144" y2="102" stroke="#d8cdb8" stroke-width="3"/><defs><radialGradient id="o130" cx="34%" cy="28%" r="82%"><stop offset="0%" stop-color="#8fd0dc"/><stop offset="58%" stop-color="#3d7d8c"/><stop offset="100%" stop-color="#3d7d8c"/></radialGradient><radialGradient id="r131" cx="70%" cy="78%" r="60%"><stop offset="60%" stop-color="#ffffff" stop-opacity="0"/><stop offset="100%" stop-color="#ffffff" stop-opacity="0.55"/></radialGradient></defs><circle cx="76" cy="102" r="8" fill="url(#o130)"/><circle cx="76" cy="102" r="8" fill="url(#r131)"/><ellipse cx="73.36" cy="98.64" rx="2.4" ry="1.6" fill="#fff" opacity="0.8" transform="rotate(-28 76 102)"/><ellipse cx="78.24" cy="106" rx="1.8" ry="0.9" fill="#fff" opacity="0.3"/><defs><radialGradient id="o132" cx="34%" cy="28%" r="82%"><stop offset="0%" stop-color="#8fd0dc"/><stop offset="58%" stop-color="#3d7d8c"/><stop offset="100%" stop-color="#3d7d8c"/></radialGradient><radialGradient id="r133" cx="70%" cy="78%" r="60%"><stop offset="60%" stop-color="#ffffff" stop-opacity="0"/><stop offset="100%" stop-color="#ffffff" stop-opacity="0.55"/></radialGradient></defs><circle cx="96" cy="102" r="8" fill="url(#o132)"/><circle cx="96" cy="102" r="8" fill="url(#r133)"/><ellipse cx="93.36" cy="98.64" rx="2.4" ry="1.6" fill="#fff" opacity="0.8" transform="rotate(-28 96 102)"/><ellipse cx="98.24" cy="106" rx="1.8" ry="0.9" fill="#fff" opacity="0.3"/><defs><radialGradient id="o134" cx="34%" cy="28%" r="82%"><stop offset="0%" stop-color="#8fd0dc"/><stop offset="58%" stop-color="#3d7d8c"/><stop offset="100%" stop-color="#3d7d8c"/></radialGradient><radialGradient id="r135" cx="70%" cy="78%" r="60%"><stop offset="60%" stop-color="#ffffff" stop-opacity="0"/><stop offset="100%" stop-color="#ffffff" stop-opacity="0.55"/></radialGradient></defs><circle cx="116" cy="102" r="8" fill="url(#o134)"/><circle cx="116" cy="102" r="8" fill="url(#r135)"/><ellipse cx="113.36" cy="98.64" rx="2.4" ry="1.6" fill="#fff" opacity="0.8" transform="rotate(-28 116 102)"/><ellipse cx="118.24" cy="106" rx="1.8" ry="0.9" fill="#fff" opacity="0.3"/><defs><radialGradient id="o136" cx="34%" cy="28%" r="82%"><stop offset="0%" stop-color="#8fd0dc"/><stop offset="58%" stop-color="#3d7d8c"/><stop offset="100%" stop-color="#3d7d8c"/></radialGradient><radialGradient id="r137" cx="70%" cy="78%" r="60%"><stop offset="60%" stop-color="#ffffff" stop-opacity="0"/><stop offset="100%" stop-color="#ffffff" stop-opacity="0.55"/></radialGradient></defs><circle cx="136" cy="102" r="8" fill="url(#o136)"/><circle cx="136" cy="102" r="8" fill="url(#r137)"/><ellipse cx="133.36" cy="98.64" rx="2.4" ry="1.6" fill="#fff" opacity="0.8" transform="rotate(-28 136 102)"/><ellipse cx="138.24" cy="106" rx="1.8" ry="0.9" fill="#fff" opacity="0.3"/><line x1="56" y1="122" x2="144" y2="122" stroke="#d8cdb8" stroke-width="3"/><defs><radialGradient id="o138" cx="34%" cy="28%" r="82%"><stop offset="0%" stop-color="#f7d074"/><stop offset="58%" stop-color="#bd8b21"/><stop offset="100%" stop-color="#bd8b21"/></radialGradient><radialGradient id="r139" cx="70%" cy="78%" r="60%"><stop offset="60%" stop-color="#ffffff" stop-opacity="0"/><stop offset="100%" stop-color="#ffffff" stop-opacity="0.55"/></radialGradient></defs><circle cx="70" cy="122" r="8" fill="url(#o138)"/><circle cx="70" cy="122" r="8" fill="url(#r139)"/><ellipse cx="67.36" cy="118.64" rx="2.4" ry="1.6" fill="#fff" opacity="0.8" transform="rotate(-28 70 122)"/><ellipse cx="72.24" cy="126" rx="1.8" ry="0.9" fill="#fff" opacity="0.3"/><defs><radialGradient id="o140" cx="34%" cy="28%" r="82%"><stop offset="0%" stop-color="#f7d074"/><stop offset="58%" stop-color="#bd8b21"/><stop offset="100%" stop-color="#bd8b21"/></radialGradient><radialGradient id="r141" cx="70%" cy="78%" r="60%"><stop offset="60%" stop-color="#ffffff" stop-opacity="0"/><stop offset="100%" stop-color="#ffffff" stop-opacity="0.55"/></radialGradient></defs><circle cx="90" cy="122" r="8" fill="url(#o140)"/><circle cx="90" cy="122" r="8" fill="url(#r141)"/><ellipse cx="87.36" cy="118.64" rx="2.4" ry="1.6" fill="#fff" opacity="0.8" transform="rotate(-28 90 122)"/><ellipse cx="92.24" cy="126" rx="1.8" ry="0.9" fill="#fff" opacity="0.3"/><defs><radialGradient id="o142" cx="34%" cy="28%" r="82%"><stop offset="0%" stop-color="#f7d074"/><stop offset="58%" stop-color="#bd8b21"/><stop offset="100%" stop-color="#bd8b21"/></radialGradient><radialGradient id="r143" cx="70%" cy="78%" r="60%"><stop offset="60%" stop-color="#ffffff" stop-opacity="0"/><stop offset="100%" stop-color="#ffffff" stop-opacity="0.55"/></radialGradient></defs><circle cx="110" cy="122" r="8" fill="url(#o142)"/><circle cx="110" cy="122" r="8" fill="url(#r143)"/><ellipse cx="107.36" cy="118.64" rx="2.4" ry="1.6" fill="#fff" opacity="0.8" transform="rotate(-28 110 122)"/><ellipse cx="112.24" cy="126" rx="1.8" ry="0.9" fill="#fff" opacity="0.3"/><defs><radialGradient id="o144" cx="34%" cy="28%" r="82%"><stop offset="0%" stop-color="#f7d074"/><stop offset="58%" stop-color="#bd8b21"/><stop offset="100%" stop-color="#bd8b21"/></radialGradient><radialGradient id="r145" cx="70%" cy="78%" r="60%"><stop offset="60%" stop-color="#ffffff" stop-opacity="0"/><stop offset="100%" stop-color="#ffffff" stop-opacity="0.55"/></radialGradient></defs><circle cx="130" cy="122" r="8" fill="url(#o144)"/><circle cx="130" cy="122" r="8" fill="url(#r145)"/><ellipse cx="127.36" cy="118.64" rx="2.4" ry="1.6" fill="#fff" opacity="0.8" transform="rotate(-28 130 122)"/><ellipse cx="132.24" cy="126" rx="1.8" ry="0.9" fill="#fff" opacity="0.3"/></g></svg>