<svg xmlns="http://www.w3.org/2000/svg" viewBox="0 0 200 200" width="200" height="200"><defs><radialGradient id="bgG" cx="50%" cy="34%" r="76%"><stop offset="0%" stop-color="#fffcf6"/><stop offset="100%" stop-color="#f7efe2"/></radialGradient><radialGradient id="floor" cx="50%" cy="50%" r="50%"><stop offset="0%" stop-color="#a8977c" stop-opacity="0.5"/><stop offset="70%" stop-color="#a8977c" stop-opacity="0.12"/><stop offset="100%" stop-color="#a8977c" stop-opacity="0"/></radialGradient><linearGradient id="gloss" x1="0" y1="0" x2="0" y2="1"><stop offset="0%" stop-color="#ffffff" stop-opacity="0.75"/><stop offset="55%" stop-color="#ffffff" stop-opacity="0.12"/><stop offset="100%" stop-color="#ffffff" stop-opacity="0"/></linearGradient><clipPath id="cardClip"><rect width="200" height="200" rx="26"/></clipPath><clipPath id="sceneClip"><rect width="320" height="180" rx="14"/></clipPath></defs><g clip-path="url(#cardClip)"><rect width="200" height="200" rx="26" fill="url(#bgG)"/><ellipse cx="100" cy="156" rx="50" ry="10" fill="url(#floor)"/><path d="M100 146 q-48-29-54-60 q-4-23 17-29 q19-6 37 17 q18-23 37-17 q21 6 17 29 q-6 31-54 60z" fill="#ef6f7b"/><path d="M100 74 q-18-23-37-17 q-21 6-17 29 q3 15 14 29 q-12-26 3-40 q16-15 37-1z" fill="url(#gloss)"/></g></svg>