<svg xmlns="http://www.w3.org/2000/svg" viewBox="0 0 200 200" width="200" height="200"><defs><radialGradient id="bgG" cx="50%" cy="34%" r="76%"><stop offset="0%" stop-color="#fffcf6"/><stop offset="100%" stop-color="#f7efe2"/></radialGradient><radialGradient id="floor" cx="50%" cy="50%" r="50%"><stop offset="0%" stop-color="#a8977c" stop-opacity="0.5"/><stop offset="70%" stop-color="#a8977c" stop-opacity="0.12"/><stop offset="100%" stop-color="#a8977c" stop-opacity="0"/></radialGradient><linearGradient id="gloss" x1="0" y1="0" x2="0" y2="1"><stop offset="0%" stop-color="#ffffff" stop-opacity="0.75"/><stop offset="55%" stop-color="#ffffff" stop-opacity="0.12"/><stop offset="100%" stop-color="#ffffff" stop-opacity="0"/></linearGradient><clipPath id="cardClip"><rect width="200" height="200" rx="26"/></clipPath><clipPath id="sceneClip"><rect width="320" height="180" rx="14"/></clipPath></defs><g clip-path="url(#cardClip)"><rect width="200" height="200" rx="26" fill="url(#bgG)"/><defs><radialGradient id="o46" cx="34%" cy="28%" r="82%"><stop offset="0%" stop-color="#fff0b8"/><stop offset="58%" stop-color="#f5b13f"/><stop offset="100%" stop-color="#d98a1c"/></radialGradient><radialGradient id="r47" cx="70%" cy="78%" r="60%"><stop offset="60%" stop-color="#ffffff" stop-opacity="0"/><stop offset="100%" stop-color="#ffffff" stop-opacity="0.55"/></radialGradient></defs><circle cx="50" cy="50" r="21" fill="url(#o46)"/><circle cx="50" cy="50" r="21" fill="url(#r47)"/><ellipse cx="43.07" cy="41.18" rx="6.3" ry="4.2" fill="#fff" opacity="0.8" transform="rotate(-28 50 50)"/><ellipse cx="55.88" cy="60.5" rx="4.6" ry="2.3" fill="#fff" opacity="0.3"/><path d="M104 60 a21 21 0 0 1 42 4 a17 17 0 0 1-5 33 h-41 a19 19 0 0 1 4-37z" fill="#e2e9f0"/><path d="M104 60 a21 21 0 0 1 42 4 a17 17 0 0 1-5 12 h-41 a19 19 0 0 1 4-16z" fill="url(#gloss)"/><line x1="112" y1="104" x2="105" y2="126" stroke="#6fa8c9" stroke-width="5" stroke-linecap="round"/><line x1="128" y1="108" x2="121" y2="130" stroke="#6fa8c9" stroke-width="5" stroke-linecap="round"/><line x1="144" y1="104" x2="137" y2="126" stroke="#6fa8c9" stroke-width="5" stroke-linecap="round"/><path d="M24 158 q36-22 76-14 q42 8 76-10 v38 H24z" fill="#4f8fa8"/><path d="M24 158 q36-22 76-14 q42 8 76-10 v8 q-40 18-78 10 q-38-8-74 12z" fill="url(#gloss)"/><path d="M56 138 q-20-28 4-46" stroke="#8fc0d6" stroke-width="5" fill="none" stroke-linecap="round" stroke-dasharray="8 7"/></g></svg>