<svg xmlns="http://www.w3.org/2000/svg" viewBox="0 0 400 250" width="400" height="250" role="img"><title>Writing About Pictures</title><defs><linearGradient id="a306_bg" x1="0" y1="0" x2="0.4" y2="1"><stop offset="0%" stop-color="#2e1065"/><stop offset="100%" stop-color="#6d28d9"/></linearGradient><linearGradient id="a306_sheen" x1="0" y1="0" x2="0" y2="1"><stop offset="0%" stop-color="#ffffff" stop-opacity="0.30"/><stop offset="45%" stop-color="#ffffff" stop-opacity="0.05"/><stop offset="100%" stop-color="#ffffff" stop-opacity="0"/></linearGradient><radialGradient id="a306_vig" cx="50%" cy="46%" r="72%"><stop offset="60%" stop-color="#000000" stop-opacity="0"/><stop offset="100%" stop-color="#000000" stop-opacity="0.32"/></radialGradient><clipPath id="a306_card"><rect width="240" height="240" rx="34"/></clipPath><radialGradient id="a306_bl1" cx="50%" cy="50%" r="50%"><stop offset="0%" stop-color="#fbbf24" stop-opacity="0.80"/><stop offset="60%" stop-color="#fbbf24" stop-opacity="0.21"/><stop offset="100%" stop-color="#fbbf24" stop-opacity="0"/></radialGradient><radialGradient id="a306_g2" cx="34%" cy="26%" r="82%"><stop offset="0%" stop-color="#fcdb86"/><stop offset="55%" stop-color="#fbbf24"/><stop offset="100%" stop-color="#826312"/></radialGradient><radialGradient id="a306_g3" cx="34%" cy="26%" r="82%"><stop offset="0%" stop-color="#fcb0bb"/><stop offset="55%" stop-color="#fb7185"/><stop offset="100%" stop-color="#823a45"/></radialGradient><radialGradient id="a306_g4" cx="34%" cy="26%" r="82%"><stop offset="0%" stop-color="#9ca1a9"/><stop offset="55%" stop-color="#4b5563"/><stop offset="100%" stop-color="#272c33"/></radialGradient><radialGradient id="a306_g5" cx="34%" cy="26%" r="82%"><stop offset="0%" stop-color="#ff9dc9"/><stop offset="55%" stop-color="#ff4d9d"/><stop offset="100%" stop-color="#842851"/></radialGradient><clipPath id="a306_card2"><rect width="400" height="250" rx="26"/></clipPath></defs><g clip-path="url(#a306_card2)"><rect width="400" height="250" fill="url(#a306_bg)"/><g transform="translate(72.50,0) scale(1.0625)"><rect width="240" height="240" fill="url(#a306_bg)"/><circle cx="120" cy="112.8" r="112" fill="url(#a306_bl1)"/><rect x="96" y="40" width="44" height="132" rx="8" fill="url(#a306_g2)" transform="rotate(14 118 106)"/><rect x="96" y="40" width="44" height="72.6" rx="8" fill="url(#a306_sheen)" transform="rotate(14 118 106)"/><path d="M74 190 L92 156 L128 172 Z" fill="url(#a306_g3)"/><path d="M74 190 L84 173 L96 179 Z" fill="url(#a306_g4)"/><rect x="100" y="26" width="46" height="22" rx="7" fill="url(#a306_g5)" transform="rotate(14 123 37)"/><rect x="100" y="26" width="46" height="12.1" rx="7" fill="url(#a306_sheen)" transform="rotate(14 123 37)"/><path d="M52 54 L54.4 59.6 L60 62 L54.4 64.4 Z M52 70 L49.6 64.4 L44 62 L49.6 59.6 Z" fill="#ffffff" opacity="0.90"/><path d="M192 79 L194.1 83.9 L199 86 L194.1 88.1 Z M192 93 L189.9 88.1 L185 86 L189.9 83.9 Z" fill="#ffffff" opacity="0.90"/></g><rect width="400" height="125" fill="url(#a306_sheen)" opacity="0.5"/><rect width="400" height="250" fill="url(#a306_vig)"/></g></svg>