<svg xmlns="http://www.w3.org/2000/svg" viewBox="0 0 400 250" width="400" height="250" role="img"><title>Manners in Public</title><defs><linearGradient id="a372_bg" x1="0" y1="0" x2="0.4" y2="1"><stop offset="0%" stop-color="#500724"/><stop offset="100%" stop-color="#be185d"/></linearGradient><linearGradient id="a372_sheen" x1="0" y1="0" x2="0" y2="1"><stop offset="0%" stop-color="#ffffff" stop-opacity="0.30"/><stop offset="45%" stop-color="#ffffff" stop-opacity="0.05"/><stop offset="100%" stop-color="#ffffff" stop-opacity="0"/></linearGradient><radialGradient id="a372_vig" cx="50%" cy="46%" r="72%"><stop offset="60%" stop-color="#000000" stop-opacity="0"/><stop offset="100%" stop-color="#000000" stop-opacity="0.32"/></radialGradient><clipPath id="a372_card"><rect width="240" height="240" rx="34"/></clipPath><radialGradient id="a372_bl1" cx="50%" cy="50%" r="50%"><stop offset="0%" stop-color="#fbbf24" stop-opacity="0.80"/><stop offset="60%" stop-color="#fbbf24" stop-opacity="0.21"/><stop offset="100%" stop-color="#fbbf24" stop-opacity="0"/></radialGradient><radialGradient id="a372_g2" cx="34%" cy="26%" r="82%"><stop offset="0%" stop-color="#fcb0bb"/><stop offset="55%" stop-color="#fb7185"/><stop offset="100%" stop-color="#823a45"/></radialGradient><radialGradient id="a372_g3" cx="34%" cy="26%" r="82%"><stop offset="0%" stop-color="#fcb0bb"/><stop offset="55%" stop-color="#fb7185"/><stop offset="100%" stop-color="#823a45"/></radialGradient><radialGradient id="a372_g4" cx="34%" cy="26%" r="82%"><stop offset="0%" stop-color="#fcb0bb"/><stop offset="55%" stop-color="#fb7185"/><stop offset="100%" stop-color="#823a45"/></radialGradient><radialGradient id="a372_g5" cx="34%" cy="26%" r="82%"><stop offset="0%" stop-color="#fcb0bb"/><stop offset="55%" stop-color="#fb7185"/><stop offset="100%" stop-color="#823a45"/></radialGradient><radialGradient id="a372_g6" cx="34%" cy="26%" r="82%"><stop offset="0%" stop-color="#fcb0bb"/><stop offset="55%" stop-color="#fb7185"/><stop offset="100%" stop-color="#823a45"/></radialGradient><radialGradient id="a372_g7" cx="34%" cy="26%" r="82%"><stop offset="0%" stop-color="#fcb0bb"/><stop offset="55%" stop-color="#fb7185"/><stop offset="100%" stop-color="#823a45"/></radialGradient><radialGradient id="a372_g8" cx="34%" cy="26%" r="82%"><stop offset="0%" stop-color="#fcb0bb"/><stop offset="55%" stop-color="#fb7185"/><stop offset="100%" stop-color="#823a45"/></radialGradient><radialGradient id="a372_g9" cx="34%" cy="26%" r="82%"><stop offset="0%" stop-color="#fcb0bb"/><stop offset="55%" stop-color="#fb7185"/><stop offset="100%" stop-color="#823a45"/></radialGradient><radialGradient id="a372_g10" cx="34%" cy="26%" r="82%"><stop offset="0%" stop-color="#fcdb86"/><stop offset="55%" stop-color="#fbbf24"/><stop offset="100%" stop-color="#826312"/></radialGradient><clipPath id="a372_card2"><rect width="400" height="250" rx="26"/></clipPath></defs><g clip-path="url(#a372_card2)"><rect width="400" height="250" fill="url(#a372_bg)"/><g transform="translate(72.50,0) scale(1.0625)"><rect width="240" height="240" fill="url(#a372_bg)"/><circle cx="120" cy="112.8" r="112" fill="url(#a372_bl1)"/><ellipse cx="76" cy="164" rx="40" ry="30" fill="url(#a372_g2)" transform="rotate(-16 76 164)"/><ellipse cx="64" cy="152" rx="12.8" ry="6" fill="#ffffff" opacity="0.55" transform="rotate(-38 64 152)"/><ellipse cx="70" cy="140" rx="9" ry="20" fill="url(#a372_g3)" transform="rotate(-16 70 140)"/><ellipse cx="67.3" cy="132" rx="2.88" ry="4" fill="#ffffff" opacity="0.55" transform="rotate(-38 67.3 132)"/><ellipse cx="55" cy="144" rx="9" ry="20" fill="url(#a372_g4)" transform="rotate(-28 55 144)"/><ellipse cx="52.3" cy="136" rx="2.88" ry="4" fill="#ffffff" opacity="0.55" transform="rotate(-50 52.3 136)"/><ellipse cx="40" cy="148" rx="9" ry="20" fill="url(#a372_g5)" transform="rotate(-40 40 148)"/><ellipse cx="37.3" cy="140" rx="2.88" ry="4" fill="#ffffff" opacity="0.55" transform="rotate(-62 37.3 140)"/><ellipse cx="164" cy="164" rx="40" ry="30" fill="url(#a372_g6)" transform="rotate(16 164 164)"/><ellipse cx="152" cy="152" rx="12.8" ry="6" fill="#ffffff" opacity="0.55" transform="rotate(-6 152 152)"/><ellipse cx="170" cy="140" rx="9" ry="20" fill="url(#a372_g7)" transform="rotate(16 170 140)"/><ellipse cx="167.3" cy="132" rx="2.88" ry="4" fill="#ffffff" opacity="0.55" transform="rotate(-6 167.3 132)"/><ellipse cx="185" cy="144" rx="9" ry="20" fill="url(#a372_g8)" transform="rotate(28 185 144)"/><ellipse cx="182.3" cy="136" rx="2.88" ry="4" fill="#ffffff" opacity="0.55" transform="rotate(6 182.3 136)"/><ellipse cx="200" cy="148" rx="9" ry="20" fill="url(#a372_g9)" transform="rotate(40 200 148)"/><ellipse cx="197.3" cy="140" rx="2.88" ry="4" fill="#ffffff" opacity="0.55" transform="rotate(18 197.3 140)"/><circle cx="120" cy="104" r="32" fill="url(#a372_g10)"/><ellipse cx="109.76" cy="91.84" rx="10.88" ry="6.08" fill="#ffffff" opacity="0.55" transform="rotate(-24 109.76 91.84)"/><path d="M54 51 L56.7 57.3 L63 60 L56.7 62.7 Z M54 69 L51.3 62.7 L45 60 L51.3 57.3 Z" fill="#ffffff" opacity="0.90"/><path d="M188 56 L190.4 61.6 L196 64 L190.4 66.4 Z M188 72 L185.6 66.4 L180 64 L185.6 61.6 Z" fill="#ffffff" opacity="0.90"/><path d="M120 30 L122.4 35.6 L128 38 L122.4 40.4 Z M120 46 L117.6 40.4 L112 38 L117.6 35.6 Z" fill="#ffffff" opacity="0.90"/></g><rect width="400" height="125" fill="url(#a372_sheen)" opacity="0.5"/><rect width="400" height="250" fill="url(#a372_vig)"/></g></svg>