<svg xmlns="http://www.w3.org/2000/svg" viewBox="0 0 400 250" width="400" height="250" role="img"><title>Mis Primeras Palabras</title><defs><linearGradient id="a7_bg" x1="0" y1="0" x2="0.4" y2="1"><stop offset="0%" stop-color="#052e16"/><stop offset="100%" stop-color="#15803d"/></linearGradient><linearGradient id="a7_sheen" x1="0" y1="0" x2="0" y2="1"><stop offset="0%" stop-color="#ffffff" stop-opacity="0.30"/><stop offset="45%" stop-color="#ffffff" stop-opacity="0.05"/><stop offset="100%" stop-color="#ffffff" stop-opacity="0"/></linearGradient><radialGradient id="a7_vig" cx="50%" cy="46%" r="72%"><stop offset="60%" stop-color="#000000" stop-opacity="0"/><stop offset="100%" stop-color="#000000" stop-opacity="0.32"/></radialGradient><clipPath id="a7_card"><rect width="240" height="240" rx="34"/></clipPath><radialGradient id="a7_bl1" cx="50%" cy="50%" r="50%"><stop offset="0%" stop-color="#fbbf24" stop-opacity="0.80"/><stop offset="60%" stop-color="#fbbf24" stop-opacity="0.21"/><stop offset="100%" stop-color="#fbbf24" stop-opacity="0"/></radialGradient><radialGradient id="a7_g2" cx="34%" cy="26%" r="82%"><stop offset="0%" stop-color="#fcdb86"/><stop offset="55%" stop-color="#fbbf24"/><stop offset="100%" stop-color="#826312"/></radialGradient><radialGradient id="a7_g3" cx="34%" cy="26%" r="82%"><stop offset="0%" stop-color="#f9c978"/><stop offset="55%" stop-color="#f59e0b"/><stop offset="100%" stop-color="#7f5205"/></radialGradient><clipPath id="a7_card2"><rect width="400" height="250" rx="26"/></clipPath></defs><g clip-path="url(#a7_card2)"><rect width="400" height="250" fill="url(#a7_bg)"/><g transform="translate(72.50,0) scale(1.0625)"><rect width="240" height="240" fill="url(#a7_bg)"/><circle cx="120" cy="112.8" r="130" fill="url(#a7_bl1)"/><circle cx="120" cy="130" r="46" fill="url(#a7_g2)"/><ellipse cx="105.28" cy="112.52" rx="15.64" ry="8.74" fill="#ffffff" opacity="0.55" transform="rotate(-24 105.28 112.52)"/><path d="M60 130 L38 130" fill="none" stroke="#fbbf24" stroke-width="8" stroke-linecap="round" stroke-linejoin="round" opacity="0.90"/><path d="M65.9419 103.967 L46.1206 94.4215" fill="none" stroke="#fbbf24" stroke-width="8" stroke-linecap="round" stroke-linejoin="round" opacity="0.90"/><path d="M82.5906 83.0901 L68.8738 65.8898" fill="none" stroke="#fbbf24" stroke-width="8" stroke-linecap="round" stroke-linejoin="round" opacity="0.90"/><path d="M106.649 71.5043 L101.753 50.0559" fill="none" stroke="#fbbf24" stroke-width="8" stroke-linecap="round" stroke-linejoin="round" opacity="0.90"/><path d="M133.351 71.5043 L138.247 50.0559" fill="none" stroke="#fbbf24" stroke-width="8" stroke-linecap="round" stroke-linejoin="round" opacity="0.90"/><path d="M157.409 83.0901 L171.126 65.8898" fill="none" stroke="#fbbf24" stroke-width="8" stroke-linecap="round" stroke-linejoin="round" opacity="0.90"/><path d="M174.058 103.967 L193.879 94.4215" fill="none" stroke="#fbbf24" stroke-width="8" stroke-linecap="round" stroke-linejoin="round" opacity="0.90"/><path d="M180 130 L202 130" fill="none" stroke="#fbbf24" stroke-width="8" stroke-linecap="round" stroke-linejoin="round" opacity="0.90"/><rect x="18" y="168" width="204" height="46" rx="14" fill="url(#a7_g3)"/><rect x="18" y="168" width="204" height="25.3" rx="14" fill="url(#a7_sheen)"/><path d="M56 52 L58.4 57.6 L64 60 L58.4 62.4 Z M56 68 L53.6 62.4 L48 60 L53.6 57.6 Z" fill="#ffffff" opacity="0.90"/><path d="M190 59 L192.1 63.9 L197 66 L192.1 68.1 Z M190 73 L187.9 68.1 L183 66 L187.9 63.9 Z" fill="#ffffff" opacity="0.90"/></g><rect width="400" height="125" fill="url(#a7_sheen)" opacity="0.5"/><rect width="400" height="250" fill="url(#a7_vig)"/></g></svg>