<svg xmlns="http://www.w3.org/2000/svg" viewBox="0 0 400 250" width="400" height="250" role="img">
<defs>
<linearGradient id="bg" x1="0" y1="0" x2="0.4" y2="1">
  <stop offset="0%" stop-color="#4c1d95"/><stop offset="100%" stop-color="#7c2d12"/></linearGradient>
<linearGradient id="sheen" x1="0" y1="0" x2="0" y2="1">
  <stop offset="0%" stop-color="#ffffff" stop-opacity="0.30"/>
  <stop offset="45%" stop-color="#ffffff" stop-opacity="0.05"/>
  <stop offset="100%" stop-color="#ffffff" stop-opacity="0"/></linearGradient>
<radialGradient id="vig" cx="50%" cy="46%" r="72%">
  <stop offset="60%" stop-color="#000000" stop-opacity="0"/>
  <stop offset="100%" stop-color="#000000" stop-opacity="0.30"/></radialGradient>
<clipPath id="card"><rect width="400" height="250" rx="26"/></clipPath>
<radialGradient id="bloom" cx="50%" cy="50%" r="50%"><stop offset="0%" stop-color="#ff4d9d" stop-opacity="0.85"/><stop offset="60%" stop-color="#ff4d9d" stop-opacity="0.22"/><stop offset="100%" stop-color="#ff4d9d" stop-opacity="0"/></radialGradient><radialGradient id="gShoe" cx="34%" cy="26%" r="82%"><stop offset="0%" stop-color="#fcb0bb"/><stop offset="55%" stop-color="#fb7185"/><stop offset="100%" stop-color="#be123c"/></radialGradient><radialGradient id="gSock" cx="34%" cy="26%" r="82%"><stop offset="0%" stop-color="#85e6f5"/><stop offset="55%" stop-color="#22d3ee"/><stop offset="100%" stop-color="#0e7490"/></radialGradient><radialGradient id="gPaper" cx="34%" cy="26%" r="82%"><stop offset="0%" stop-color="#fefbde"/><stop offset="55%" stop-color="#fef9c3"/><stop offset="100%" stop-color="#b45309"/></radialGradient>
</defs>
<g clip-path="url(#card)"><rect width="400" height="250" fill="url(#bg)"/><circle cx="112" cy="160" r="106" fill="url(#bloom)"/><path d="M0 208 Q 200 192 400 208 L400 250 L0 250 Z" fill="#3b0764"/><ellipse cx="112" cy="210" rx="62" ry="14" fill="#000000" opacity="0.28"/><path d="M60 196 q 4 -32 32 -32 l26 0 q 28 6 36 32 Z" fill="url(#gShoe)"/><rect x="54" y="190" width="102" height="14" rx="7" fill="#be123c"/><path d="M84 166 l0 -42 q 23 -8 46 0 l0 42 Z" fill="url(#gSock)"/><path d="M84 140 q 23 -8 46 0" fill="none" stroke="#ffffff" stroke-width="5" stroke-linecap="round" opacity="0.5"/><path d="M152 148 l24 -18 M152 168 l28 -2" stroke="#ff4d9d" stroke-width="4.4" stroke-linecap="round" opacity="0.8"/><g transform="rotate(4 288 140)"><rect x="222" y="56" width="136" height="152" rx="8" fill="url(#gPaper)"/><circle cx="243" cy="82" r="10" fill="#ff4d9d"/><text x="243" y="87" font-family="Verdana,sans-serif" font-size="12" font-weight="700" fill="#ffffff" text-anchor="middle">1</text><rect x="261" y="78" width="60" height="6" rx="3" fill="#5b21b6" opacity="0.45"/><rect x="261" y="89" width="46" height="4" rx="2" fill="#5b21b6" opacity="0.25"/><circle cx="243" cy="114" r="10" fill="#a3e635"/><text x="243" y="119" font-family="Verdana,sans-serif" font-size="12" font-weight="700" fill="#ffffff" text-anchor="middle">2</text><rect x="261" y="110" width="56" height="6" rx="3" fill="#5b21b6" opacity="0.45"/><rect x="261" y="121" width="42" height="4" rx="2" fill="#5b21b6" opacity="0.25"/><circle cx="243" cy="146" r="10" fill="#22d3ee"/><text x="243" y="151" font-family="Verdana,sans-serif" font-size="12" font-weight="700" fill="#ffffff" text-anchor="middle">3</text><rect x="261" y="142" width="52" height="6" rx="3" fill="#5b21b6" opacity="0.45"/><rect x="261" y="153" width="38" height="4" rx="2" fill="#5b21b6" opacity="0.25"/><circle cx="243" cy="178" r="10" fill="#8b5cf6"/><text x="243" y="183" font-family="Verdana,sans-serif" font-size="12" font-weight="700" fill="#ffffff" text-anchor="middle">4</text><rect x="261" y="174" width="48" height="6" rx="3" fill="#5b21b6" opacity="0.45"/><rect x="261" y="185" width="34" height="4" rx="2" fill="#5b21b6" opacity="0.25"/></g><path d="M60 55 Q 61.5 60.5 67 62 Q 61.5 63.5 60 69 Q 58.5 63.5 53 62 Q 58.5 60.5 60 55 Z" fill="#fbbf24" opacity="0.92"/><path d="M196 39 Q 197.1 42.9 201 44 Q 197.1 45.1 196 49 Q 194.9 45.1 191 44 Q 194.9 42.9 196 39 Z" fill="#fbbf24" opacity="0.92"/><rect width="400" height="250" fill="url(#vig)"/><rect width="400" height="250" fill="url(#sheen)"/></g></svg>
